<?xml version="1.0" encoding="UTF-8" standalone="no"?>
<svg width="184px" height="36px" viewBox="0 0 184 36" version="1.1" xmlns="http://www.w3.org/2000/svg" xmlns:xlink="http://www.w3.org/1999/xlink" xmlns:sketch="http://www.bohemiancoding.com/sketch/ns">
    <!-- Generator: Sketch 3.3.3 (12072) - http://www.bohemiancoding.com/sketch -->
    <title>圈子管家</title>
    <desc>Created with Sketch.</desc>
    <defs>
        <path id="path-1" d="M49.388231,4.5675048 C49.388231,6.94278507 47.457059,8.86835362 45.0748665,8.86835362 C42.6925536,8.86835362 40.7613816,6.94278507 40.7613816,4.5675048 C40.7613816,2.19222454 42.6925536,0.26665599 45.0748665,0.26665599 C47.457059,0.26665599 49.388231,2.19222454 49.388231,4.5675048"></path>
        <path id="path-2" d="M4.76105625,8.86835362 C2.37874333,8.86835362 0.447571277,6.94278507 0.447571277,4.5675048 C0.447571277,2.19222454 2.37874333,0.26665599 4.76105625,0.26665599 C7.14324871,0.26665599 9.07442077,2.19222454 9.07442077,4.5675048 C9.07442077,6.94278507 7.14324871,8.86835362 4.76105625,8.86835362 Z"></path>
        <path id="path-3" d="M25.2889595,8.86835362 C22.9066466,8.86835362 20.9754745,6.94278507 20.9754745,4.5675048 C20.9754745,2.19222454 22.9066466,0.26665599 25.2889595,0.26665599 C27.6711519,0.26665599 29.602324,2.19222454 29.602324,4.5675048 C29.602324,6.94278507 27.6711519,8.86835362 25.2889595,8.86835362 Z"></path>
        <path id="path-4" d="M34.6600624,26.6006166 C31.8468467,26.6006166 29.1573484,25.5558536 27.0871599,23.6587524 C25.030343,21.7737828 23.760282,19.2129244 23.5112812,16.4476297 C23.4129819,15.3556614 24.2211806,14.3910154 25.3160856,14.2930013 C26.4136409,14.1949872 27.3789257,15.0006006 27.4769841,16.0925689 C27.8124787,19.8199872 30.9007157,22.6305653 34.6600624,22.6305653 C38.4195295,22.6305653 41.507646,19.8199872 41.8430201,16.0928091 C41.9413194,15.0009609 42.9091341,14.1953475 44.0036777,14.2932415 C45.0989442,14.3910154 45.9069019,15.3556614 45.8087231,16.4476297 C45.5597222,19.2129244 44.2897817,21.7740231 42.2327239,23.6587524 C40.1628968,25.5558536 37.4733985,26.6006166 34.6600624,26.6006166"></path>
        <path id="path-5" d="M15.9178734,26.6006166 C13.1046577,26.6006166 10.4151594,25.5558536 8.34497092,23.6587524 C6.28815403,21.7737828 5.01809309,19.2129244 4.76909224,16.4476297 C4.67079292,15.3556614 5.47899162,14.3910154 6.57389666,14.2930013 C7.67145193,14.1949872 8.6367368,15.0006006 8.73479519,16.0925689 C9.0702898,19.8199872 12.1585268,22.6305653 15.9178734,22.6305653 C19.6773405,22.6305653 22.765457,19.8199872 23.1008312,16.0928091 C23.1991305,15.0009609 24.1669451,14.1953475 25.2614888,14.2932415 C26.3567552,14.3910154 27.164713,15.3556614 27.0665341,16.4476297 C26.8175333,19.2129244 25.5475928,21.7740231 23.490535,23.6587524 C21.4207079,25.5558536 18.7312096,26.6006166 15.9178734,26.6006166"></path>
    </defs>
    <g id="Page-1" stroke="none" stroke-width="1" fill="none" fill-rule="evenodd" sketch:type="MSPage">
        <g id="圈子管家" sketch:type="MSArtboardGroup">
            <g id="Group-+-Group-Copy" sketch:type="MSLayerGroup" transform="translate(5.000000, 5.000000)">
                <g id="Group">
                    <g id="Fill-1">
                        <use fill="#000000" fill-rule="evenodd" sketch:type="MSShapeGroup" xlink:href="#path-1"></use>
                        <use fill="none" xlink:href="#path-1"></use>
                    </g>
                    <g id="Fill-1-Copy-2">
                        <use fill="#000000" fill-rule="evenodd" sketch:type="MSShapeGroup" xlink:href="#path-2"></use>
                        <use fill="none" xlink:href="#path-2"></use>
                    </g>
                    <g id="Fill-1-Copy-3">
                        <use fill="#000000" fill-rule="evenodd" sketch:type="MSShapeGroup" xlink:href="#path-3"></use>
                        <use fill="none" xlink:href="#path-3"></use>
                    </g>
                    <g id="Fill-17">
                        <use fill="#000000" fill-rule="evenodd" sketch:type="MSShapeGroup" xlink:href="#path-4"></use>
                        <use fill="none" xlink:href="#path-4"></use>
                    </g>
                    <g id="Fill-17-Copy">
                        <use fill="#000000" fill-rule="evenodd" sketch:type="MSShapeGroup" transform="translate(15.917805, 20.442772) scale(-1, 1) translate(-15.917805, -20.442772) " xlink:href="#path-5"></use>
                        <use fill="none" xlink:href="#path-5"></use>
                    </g>
                </g>
                <g id="Group" transform="translate(62.000000, 0.000000)" fill="#080808" sketch:type="MSShapeGroup">
                    <path d="M25.0643556,0.32496861 L0.458844444,0.32496861 C0.210666667,0.32496861 0.010962963,0.533098655 0.0158222222,0.786511211 L0.507555556,26.1238924 C0.512414815,26.3737937 0.714725926,26.5723587 0.959348148,26.5673946 L2.49653333,26.536157 C2.69540741,26.5320404 2.85908148,26.3938924 2.91146667,26.2084036 L22.5928889,26.2084036 L22.5918222,26.2651883 C22.5870815,26.5150897 22.7814519,26.7216457 23.0261926,26.7264888 L24.5638519,26.7572422 C24.8084741,26.7620852 25.0106667,26.5635202 25.0154074,26.3136188 L25.5072593,0.786390135 C25.5121185,0.533098655 25.3124148,0.32496861 25.0643556,0.32496861 L25.0643556,0.32496861 Z M3.03271111,23.9739417 C2.95354074,23.9739417 2.88906667,23.909287 2.88752593,23.8285291 L2.48219259,2.75073094 C2.48053333,2.66525112 2.54797037,2.59514798 2.63152593,2.59514798 L22.8888296,2.59514798 C22.9740444,2.59514798 23.0425481,2.66646188 23.0408889,2.75339462 L22.6384,23.8285291 C22.6368593,23.909287 22.5722667,23.9739417 22.4932148,23.9739417 L3.03271111,23.9739417 L3.03271111,23.9739417 Z" id="Fill-21"></path>
                    <path d="M21.6952296,10.0149417 L12.2197926,10.0149417 C12.145837,10.0149417 12.0999704,9.93333632 12.136,9.86734978 C12.1523556,9.83756502 12.1684741,9.80778027 12.1845926,9.77811659 C12.353837,9.46489238 12.5089778,9.15772197 12.6512,8.85817937 C12.6727704,8.81253363 12.6941037,8.76713004 12.7150815,8.72184753 C12.7391407,8.67026906 12.7896296,8.63769955 12.8456889,8.63769955 L21.0464593,8.63769955 C21.2945185,8.63769955 21.495763,8.43223318 21.495763,8.17869955 L21.495763,6.86804933 C21.495763,6.6145157 21.2945185,6.40904933 21.0464593,6.40904933 L18.7392593,6.40904933 C18.6647111,6.40904933 18.6182519,6.32671749 18.6554667,6.26073094 L19.3409778,5.04766816 C19.4651852,4.82767265 19.3914667,4.54629148 19.1761185,4.41928251 L17.8567704,3.64112556 C17.6414222,3.51411659 17.3659852,3.58954709 17.2416593,3.8095426 L15.8146963,6.3348296 C15.7887407,6.38083857 15.7408593,6.40904933 15.6889481,6.40904933 L13.7447704,6.40904933 C13.6794667,6.40904933 13.6330074,6.34439462 13.6523259,6.2808296 C13.6597926,6.25625112 13.6671407,6.23179372 13.6744889,6.20757848 C13.9182815,5.39382511 14.0487704,4.74340359 14.1159704,4.33065471 C14.158637,4.06767713 13.9736296,3.8238296 13.713837,3.79888789 L12.1936,3.65299103 C11.9598815,3.63047085 11.7489185,3.79452915 11.7085037,4.03074888 C11.6299259,4.48890135 11.4572444,5.28776233 11.096,6.29196861 C11.0936296,6.29874888 11.0911407,6.30552915 11.0886519,6.31230942 C11.0676741,6.37042601 11.0131556,6.40904933 10.9524741,6.40904933 L10.3908148,6.40904933 C10.3390222,6.40904933 10.2910222,6.38083857 10.2650667,6.3348296 L8.83786667,3.80845291 C8.7138963,3.58918386 8.43952593,3.51399552 8.22488889,3.64052018 L6.90293333,4.41988789 C6.6882963,4.54641256 6.6146963,4.82682511 6.73866667,5.04609417 L7.4333037,6.27574439 C7.46672593,6.33507175 7.42488889,6.40904933 7.35792593,6.40904933 L4.47614815,6.40904933 C4.22808889,6.40904933 4.02684444,6.6145157 4.02684444,6.86804933 L4.02684444,8.17869955 C4.02684444,8.43223318 4.22808889,8.63769955 4.47614815,8.63769955 L9.87182222,8.63769955 C9.94625185,8.63769955 9.99271111,8.71991031 9.95573333,8.78601794 C9.93191111,8.82863677 9.90761481,8.87149776 9.8832,8.91435874 C9.71774815,9.20433632 9.53795556,9.49988341 9.34263704,9.79930493 C9.30992593,9.84930942 9.27685926,9.89943498 9.24343704,9.94968161 C9.2162963,9.99024215 9.17078519,10.0149417 9.12266667,10.0149417 L3.82773333,10.0149417 C3.58026667,10.0149417 3.37961481,10.2199238 3.37961481,10.4726099 L3.3794963,11.8562691 C3.3794963,12.1090762 3.58002963,12.3140583 3.82761481,12.3140583 L7.13131852,12.3140583 C7.21688889,12.3140583 7.26085926,12.4196368 7.20077037,12.481991 C7.14103704,12.543861 7.08059259,12.6056099 7.01943704,12.6674798 C6.1154963,13.5790628 5.04148148,14.4773274 3.76456296,15.316991 C3.5586963,15.4522332 3.49647407,15.7309507 3.62471111,15.9439238 L4.42388148,17.2700717 C4.55614815,17.489704 4.83952593,17.5544798 5.05202963,17.4152422 C5.73635556,16.9664126 6.36971852,16.501722 6.95579259,16.0264978 C6.99585185,15.9940493 7.03567407,15.9614798 7.07537778,15.9289103 C7.13866667,15.8768475 7.23205926,15.9226143 7.23205926,16.0056726 L7.23205926,22.2484843 C7.23205926,22.4968117 7.4256,22.6999776 7.66856296,22.7066368 L18.033837,22.9917713 C18.2823704,22.9986726 18.4894222,22.7985336 18.4964148,22.5446368 L18.5363556,21.1029821 C18.5433481,20.8484798 18.346963,20.6364753 18.097837,20.629574 L9.80722963,20.4014664 C9.72308148,20.3991659 9.656,20.3288206 9.656,20.2428565 L9.656,19.8239327 C9.656,19.7380897 9.72296296,19.6677444 9.80699259,19.6653229 L17.7414519,19.4374574 C17.8254815,19.4350359 17.8924444,19.3648117 17.8924444,19.2788475 L17.8924444,16.1987892 C17.8924444,16.0791659 18.0235259,16.0089417 18.1198815,16.0768655 C18.1361185,16.0883677 18.1523556,16.0997489 18.1687111,16.1112511 C18.8580148,16.5934978 19.6543407,17.0757444 20.5740444,17.5347444 C20.7995852,17.6473453 21.0712296,17.5486682 21.1765926,17.3159596 L21.8193185,15.896704 C21.9214815,15.6710179 21.8272593,15.4040448 21.6088296,15.2945919 C19.6071704,14.2911121 18.308563,13.1845964 17.5032296,12.3140583 L21.6951111,12.3140583 C21.9425778,12.3140583 22.1432296,12.1090762 22.1432296,11.8562691 L22.1433481,10.4727309 C22.1433481,10.2199238 21.9426963,10.0149417 21.6952296,10.0149417 L21.6952296,10.0149417 Z M15.4685037,17.057704 C15.4685037,17.1435471 15.4015407,17.2138924 15.3173926,17.2163139 L9.81576296,17.3741973 C9.7282963,17.3767399 9.656,17.3049417 9.656,17.2155874 L9.656,16.1641614 C9.656,16.0765022 9.72557037,16.0054305 9.81137778,16.0054305 L15.3130074,16.0054305 C15.3988148,16.0054305 15.4685037,16.0765022 15.4685037,16.1641614 L15.4685037,17.057704 L15.4685037,17.057704 Z M15.3329185,13.5503677 C15.3864889,13.6145381 15.3422815,13.7136996 15.2596741,13.7136996 L9.61688889,13.7136996 C9.53285926,13.7136996 9.4896,13.6121166 9.5458963,13.5483094 C9.63277037,13.4499955 9.7181037,13.3515605 9.80177778,13.2531256 C10.0215111,12.9946278 10.2304593,12.73613 10.4288593,12.4783587 C10.4563556,12.4426413 10.4836148,12.4069238 10.5107556,12.3712063 C10.5382519,12.3351256 10.5802074,12.3140583 10.6250074,12.3140583 L14.3608296,12.3140583 C14.410963,12.3140583 14.4571852,12.3404529 14.4839704,12.3837982 C14.5002074,12.4101928 14.5171556,12.4373139 14.5348148,12.4651614 C14.6967111,12.7207534 14.9144296,13.0336143 15.1980444,13.3859462 C15.2414222,13.4399462 15.2863407,13.4946726 15.3329185,13.5503677 L15.3329185,13.5503677 Z" id="Fill-22"></path>
                    <path d="M53.0402963,11.6044305 L42.8153481,11.6044305 C42.7361778,11.6044305 42.6715852,11.5398969 42.6696889,11.4590179 L42.6286815,9.65147085 C42.6256,9.51647085 42.6805926,9.38679821 42.7792,9.29683857 L50.1934815,2.52456054 C50.3867852,2.34791031 50.3952,2.0418296 50.2119704,1.85440359 L48.9804444,0.594484305 C48.8957037,0.507793722 48.7806222,0.459121076 48.6608,0.459121076 L32.2493037,0.459121076 C31.9998222,0.459121076 31.7976296,0.66567713 31.7976296,0.920542601 L31.7976296,2.48339462 C31.7976296,2.73826009 31.9998222,2.94481614 32.2493037,2.94481614 L46.0151111,2.94481614 C46.1561481,2.94481614 46.2210963,3.12388789 46.1143111,3.21784305 L40.3297778,8.30449776 C40.2272593,8.39457848 40.1696593,8.5269148 40.1728593,8.6649417 L40.2359111,11.4521166 C40.2378074,11.5356592 40.1720296,11.6044305 40.0902519,11.6044305 L29.4097185,11.6044305 C29.159763,11.6044305 28.9572148,11.8113498 28.9572148,12.0666996 L28.9572148,13.6278565 C28.9572148,13.8832063 29.159763,14.0901256 29.4097185,14.0901256 L40.1531852,14.0901256 C40.2324741,14.0901256 40.2970667,14.1546592 40.298963,14.2355381 L40.5182222,23.9223632 C40.520237,24.0097803 40.4503111,24.0809731 40.3648593,24.0786726 L36.1806815,23.9672825 C35.9313185,23.9606233 35.7239111,24.1617309 35.7173926,24.4164753 L35.6773333,25.9786009 C35.6708148,26.2333453 35.8676741,26.4452287 36.1171556,26.4518879 L42.5396741,26.6229686 C42.7978074,26.62987 43.0090074,26.4145964 43.002963,26.1510135 L42.7328593,14.2424395 C42.730963,14.1588969 42.7967407,14.0901256 42.8785185,14.0901256 L53.0402963,14.0901256 C53.2902519,14.0901256 53.4928,13.8832063 53.4928,13.6278565 L53.4928,12.0666996 C53.4928,11.8113498 53.2902519,11.6044305 53.0402963,11.6044305" id="Fill-23"></path>
                    <path d="M61.1914074,4.43938117 C60.5083852,5.74797309 59.6829037,6.91103139 58.8859852,7.81256502 C58.3733926,7.49256054 57.2632296,6.88209417 56.6085333,6.64950673 C58.174163,5.04996861 59.4552296,2.57831839 60.1951407,0.106426009 L62.7557333,0.595210762 C62.7720889,0.598237668 62.7809778,0.613977578 62.7755259,0.629959641 C62.7755259,0.629959641 62.3585778,1.85137668 62.0738963,2.49090135 L69.2737778,2.49090135 C69.2903704,2.49090135 69.304,2.50482511 69.304,2.52177578 L69.304,4.40850673 C69.304,4.42557848 69.2903704,4.43938117 69.2737778,4.43938117 L65.3777185,4.43938117 C65.3611259,4.43938117 65.3544889,4.45136771 65.3631407,4.46589686 C65.3631407,4.46589686 66.343763,6.12585202 66.5713185,6.76561883 L64.3512296,7.5696861 C64.3354667,7.57537668 64.3170963,7.56738565 64.3103407,7.55176682 L62.7723259,4.46613901 C62.7640296,4.45148879 62.7435259,4.43938117 62.7269333,4.43938117 L61.1914074,4.43938117 L61.1914074,4.43938117 Z M70.0725926,6.06761435 C70.5281778,6.73668161 70.9550815,7.57997758 71.2110815,8.27773991 L81.4855704,8.27773991 C81.502163,8.27773991 81.5157926,8.29166368 81.5157926,8.30861435 L81.5157926,13.1613498 C81.5157926,13.1784215 81.502163,13.1922242 81.4855704,13.1922242 L78.8701037,13.1922242 C78.8533926,13.1922242 78.8398815,13.1784215 78.8398815,13.1613498 L78.8398815,10.431565 C78.8398815,10.4144933 78.8262519,10.4006906 78.8096593,10.4006906 L60.6523852,10.4006906 C60.6356741,10.4006906 60.622163,10.4144933 60.622163,10.431565 L60.622163,13.1613498 C60.622163,13.1784215 60.6085333,13.1922242 60.5918222,13.1922242 L58.1190519,13.1922242 C58.1023407,13.1922242 58.0887111,13.1784215 58.0887111,13.1613498 L58.0887111,8.30861435 C58.0887111,8.29166368 58.1023407,8.27773991 58.1190519,8.27773991 L68.5338667,8.27773991 C68.5504593,8.27773991 68.5584,8.26514798 68.5514074,8.24965022 L67.7523556,6.58957399 C67.7447704,6.57443946 67.7518815,6.55918386 67.7681185,6.55579372 L70.0725926,6.06761435 L70.0725926,6.06761435 Z M63.9809778,19.6752511 C63.9809778,19.6922018 63.9946074,19.7061256 64.0112,19.7061256 L79.5211259,19.7061256 C79.537837,19.7061256 79.5514667,19.7199283 79.5514667,19.737 L79.5514667,26.8869148 C79.5514667,26.9039865 79.537837,26.9179103 79.5211259,26.9179103 L76.9630222,26.9179103 C76.9463111,26.9179103 76.9326815,26.9039865 76.9326815,26.8869148 L76.9326815,26.1053677 C76.9326815,26.088417 76.9191704,26.0744933 76.9024593,26.0744933 L64.0112,26.0744933 C63.9946074,26.0744933 63.9809778,26.088417 63.9809778,26.1053677 L63.9809778,26.9449103 C63.9809778,26.961861 63.9674667,26.9757848 63.9507556,26.9757848 L61.3356444,26.9757848 C61.3189333,26.9757848 61.3054222,26.961861 61.3054222,26.9449103 L61.3054222,11.943565 C61.3054222,11.9266143 61.3189333,11.9126906 61.3356444,11.9126906 L78.0126222,11.9126906 C78.0293333,11.9126906 78.042963,11.9266143 78.042963,11.943565 L78.042963,17.9594798 C78.042963,17.9764305 78.0293333,17.9903543 78.0126222,17.9903543 L64.0112,17.9903543 C63.9946074,17.9903543 63.9809778,18.004278 63.9809778,18.0212287 L63.9809778,19.6752511 L63.9809778,19.6752511 Z M64.0112,13.9482242 C63.9946074,13.9482242 63.9809778,13.9620269 63.9809778,13.9790987 L63.9809778,15.9530045 C63.9809778,15.9699552 63.9946074,15.9838789 64.0112,15.9838789 L75.4507259,15.9838789 C75.4673185,15.9838789 75.4809481,15.9699552 75.4809481,15.9530045 L75.4809481,13.9790987 C75.4809481,13.9620269 75.4673185,13.9482242 75.4507259,13.9482242 L64.0112,13.9482242 L64.0112,13.9482242 Z M64.0112,21.7415381 C63.9946074,21.7415381 63.9809778,21.7554619 63.9809778,21.7724126 L63.9809778,23.9789058 C63.9809778,23.9958565 63.9946074,24.0097803 64.0112,24.0097803 L76.9024593,24.0097803 C76.9191704,24.0097803 76.9326815,23.9958565 76.9326815,23.9789058 L76.9326815,21.7724126 C76.9326815,21.7554619 76.9191704,21.7415381 76.9024593,21.7415381 L64.0112,21.7415381 L64.0112,21.7415381 Z M82.1401481,2.49090135 C82.1568593,2.49090135 82.1703704,2.50482511 82.1703704,2.52177578 L82.1703704,4.40850673 C82.1703704,4.42557848 82.1568593,4.43938117 82.1401481,4.43938117 L77.6176,4.43938117 C77.6008889,4.43938117 77.595437,4.45052018 77.6053926,4.46420179 C77.6053926,4.46420179 78.7545481,6.03867713 79.0391111,6.64950673 L76.8750815,7.62550224 C76.8597926,7.63240359 76.8405926,7.62586547 76.8322963,7.61121525 C76.8322963,7.61121525 75.6518519,5.51538565 74.8263704,4.43938117 L73.2340741,4.43938117 C73.2174815,4.43938117 73.1966222,4.45124664 73.1877333,4.46553363 C73.1877333,4.46553363 72.1505778,6.15515247 71.5527704,6.8238565 C71.0974222,6.4749148 69.9872593,5.86432735 69.3893333,5.60256054 C70.6705185,4.29408969 71.6383407,2.20007623 72.1790222,0.135726457 L74.7111704,0.595452915 C74.7276444,0.598358744 74.7367704,0.614098655 74.7315556,0.630201794 L74.0972444,2.4620852 C74.0910815,2.47794619 74.0997333,2.49090135 74.1163259,2.49090135 L82.1401481,2.49090135 L82.1401481,2.49090135 Z" id="Fill-24"></path>
                    <path d="M108.156267,12.4547489 C106.942993,13.463435 105.560474,14.4721211 104.177956,15.4522332 C105.391348,19.0550987 107.874193,22.1389103 111.231585,23.5225695 C110.667319,23.9836278 109.877393,25.0213722 109.510459,25.6841435 C106.040119,24.0412601 103.5856,20.8130045 102.118578,16.8068341 C101.751881,17.0373632 101.356741,17.2678924 100.990044,17.4986637 C101.892919,21.0725919 101.215704,24.5023184 99.6921481,25.7128386 C98.7892741,26.6065022 97.9710222,26.8659686 96.645037,26.8659686 C95.9962667,26.8946637 95.1495704,26.8659686 94.3031111,26.8083363 C94.2466963,26.0878117 94.021037,25.0500673 93.5979259,24.3008475 C94.5853037,24.387296 95.4881778,24.4449283 96.1088593,24.4449283 C96.814163,24.4449283 97.3222519,24.3582377 97.8018963,23.810852 C98.4787556,23.2341659 98.9019852,21.6779731 98.7892741,19.71787 C95.573037,22.1389103 90.945837,24.415991 87.0523852,25.5978161 C86.7701926,24.9346816 86.1776,23.9549327 85.6698667,23.3784888 C90.1275852,22.3120493 95.5445926,19.746565 98.3377185,17.2390762 C98.1685926,16.6914484 97.9994667,16.1727578 97.745363,15.625009 C94.952237,17.4986637 90.7201778,19.4297085 87.4474074,20.496148 C87.1370074,19.8907668 86.6008296,18.9684081 86.1211852,18.3919641 C89.5914074,17.584991 94.2466963,15.625009 96.7014519,13.8667399 C96.3910519,13.4056816 96.0243556,12.9443812 95.6011259,12.4834439 C93.1182815,13.8667399 90.2970667,14.9621166 87.6447407,15.7114574 C87.3909926,15.1926457 86.7137778,14.0975112 86.2622222,13.5785785 C89.6198519,12.8293587 93.2312296,11.5610852 95.8267852,9.88926457 L90.1297185,9.88926457 C90.1131259,9.88926457 90.0994963,9.87534081 90.0994963,9.85839013 L90.0994963,7.6144843 C90.0994963,7.59741256 90.1131259,7.58360987 90.1297185,7.58360987 L106.038222,7.58360987 C106.054933,7.58360987 106.068563,7.59741256 106.068563,7.6144843 L106.068563,9.85839013 C106.068563,9.87534081 106.054933,9.88926457 106.038222,9.88926457 L99.4118519,9.88926457 C99.3952593,9.88926457 99.370963,9.89786099 99.3579259,9.90827354 C99.3579259,9.90827354 98.1966815,10.8405605 97.5479111,11.3016188 C98.7609481,12.4834439 99.6356148,13.8667399 100.256415,15.3080314 C102.287704,13.9244933 105.988919,10.7164574 105.988919,10.7164574 C106.0016,10.7054395 106.022578,10.7051973 106.035615,10.7157309 L108.156267,12.4547489 L108.156267,12.4547489 Z M88.8861037,8.99378475 C88.8861037,9.01073543 88.8725926,9.02465919 88.8558815,9.02465919 L86.3773037,9.02465919 C86.3607111,9.02465919 86.3470815,9.01073543 86.3470815,8.99378475 L86.3470815,2.9164843 C86.3470815,2.89941256 86.3607111,2.88548879 86.3773037,2.88548879 L96.6429037,2.88548879 C96.6594963,2.88548879 96.6675556,2.87277578 96.6608,2.85727803 C96.6608,2.85727803 96.1088593,1.58827803 95.7986963,1.01195516 L98.5062519,0.213578475 C98.5222519,0.208856502 98.5418074,0.217210762 98.5498667,0.232103139 C98.5498667,0.232103139 99.5227852,2.04957848 99.8612741,2.88548879 L110.016296,2.88548879 C110.033007,2.88548879 110.046637,2.89941256 110.046637,2.9164843 L110.046637,8.99378475 C110.046637,9.01073543 110.033007,9.02465919 110.016296,9.02465919 L107.396444,9.02465919 C107.379733,9.02465919 107.366104,9.01073543 107.366104,8.99378475 L107.366104,5.33752466 C107.366104,5.32045291 107.352593,5.30665022 107.335881,5.30665022 L88.9163259,5.30665022 C88.8997333,5.30665022 88.8861037,5.32045291 88.8861037,5.33752466 L88.8861037,8.99378475 L88.8861037,8.99378475 Z" id="Fill-25"></path>
                </g>
            </g>
        </g>
    </g>
</svg>